<?xml version="1.0" standalone="yes"?>
<svg xmlns="http://www.w3.org/2000/svg" width="288" height="310">
<path style="fill:#fefefd; stroke:none;" d="M0 0L0 310L288 310L288 0L0 0z"/>
<path style="fill:#c89e6c; stroke:none;" d="M82 6L82 8L84 8L84 6L82 6z"/>
<path style="fill:#64321c; stroke:none;" d="M82 8C82.4355 16.3067 82.2067 25.0657 79.4552 33C76.5767 41.301 70.9629 48.4574 68.7608 57C66.9998 63.8313 67.1269 71.1097 65.4969 78C62.4691 90.7993 57.3416 102.622 57.0147 116C56.7764 125.75 59.7187 134.485 61 144C54.9943 141.767 50.8082 142.907 45 145C50.6194 146.728 56.9384 145.078 63 147C61.1577 151.774 59.1433 160.041 53.6998 162.033C50.7094 163.128 48.0887 160.246 45.2855 159.66C40.1713 158.59 33.7575 158.996 29 161C31.7332 156.271 35 152.333 40 150C40 147.337 41.4879 147.463 44 147C35.3298 144.036 26.1224 158.809 25 166C27.7916 164.515 30.8473 162.042 34 161.489C37.9159 160.803 41.8045 162.732 46 162C44.457 163.267 43.9522 163.489 42 164C39.4821 169.407 35.9552 168.898 31.1698 171.299C28.6327 172.571 26.8719 174.455 23.9853 175.023C20.4178 175.725 13.0145 177.079 11.7515 181.375C10.4287 185.875 20.0128 190.582 23 192.301C28.78 195.626 35.3962 199.303 42 200.621C46.2046 201.46 50.9712 199.517 54.9599 200.832C58.6153 202.036 60.4664 205.786 62 209C58.7159 208.398 56.2312 208.111 53 209C60.0101 212.147 66.5038 210.279 70.9421 203.985C72.7817 201.376 73.8672 196.999 76.858 195.465C81.8301 192.913 90.6508 196.77 96 197C88.9692 191.339 80.2076 193.954 72 192L72 190C77.5402 187.043 82.3904 181.693 85 176C93.9199 181.827 104.814 183.139 114 177C111.432 181.351 108.697 186.003 115 188C110.61 195.232 105.427 198.879 97 197C99.922 200.214 104.197 201.788 105.994 206.015C114.164 225.236 88.2908 238.68 74 243C78.7308 244.677 83.5649 241.23 88 239.6C100.761 234.909 108.384 221.201 114.792 210.039C118.382 203.785 121.501 199.241 123 192C126.627 192.894 130.295 193.529 134 194C132.979 206.813 123.357 216.723 116.467 227C108.678 238.617 101.259 252.111 96 265C97.7968 265 97.5215 264.986 99 264C98.9364 267.078 98.5621 269.975 98 273C104.507 269.297 103.628 261.11 106.514 255C112.585 242.145 120.122 230.582 128.229 219C131.516 214.305 133.982 209.122 138.022 205C142.914 200.007 143.029 194.26 151 194C151.755 197.678 153.201 201.209 153.401 205C153.777 212.117 152.053 219.003 151.304 226C150.594 232.639 151.104 238.545 148.522 245C146.535 249.965 142.794 253.512 140.288 258.09C136.807 264.445 137.137 273.591 129 276C129.153 279.164 128.379 281.15 127 284L131 283C131 284.797 131.014 284.521 132 286C135.123 282.53 136.047 277.829 138.915 274.144C140.615 271.96 143.302 270.918 144.915 268.701C148.446 263.851 150.003 256.556 152.204 251C154.918 244.147 159.321 237.297 160.557 230C162.885 216.257 159.599 202.66 163 189L165 189L169 196C169.888 193.54 169.467 191.585 169 189C173.691 191.956 172.998 197.977 173 203L173 240C167.162 231.873 171.489 220.428 171.741 211C171.864 206.378 171.001 201.667 171 197C168.691 202.502 170.067 210.076 169.996 216C169.919 222.46 168.203 228.627 167.478 235C167.136 238.014 167.78 240.991 167.295 244C164.861 259.09 154.716 271.843 148 285C149.661 284.387 150.483 283.957 152 283L153 288C162.197 274.15 170.455 257.561 173.624 241C175.021 233.7 174 225.417 174 218C174 206.277 174.759 194.662 175 183C184.66 194.424 188.139 207.013 192.529 221C193.614 224.458 195.723 227.43 196.522 231C198.342 239.135 197.105 246.881 197.66 255C197.847 257.723 198.926 260.231 198.783 263C198.592 266.7 197.303 270.289 197 274C199.108 272.979 200.704 272.366 203 272C202.885 265.559 203.971 259.374 203.971 253C203.971 248.575 202.655 244.367 202.167 240C201.18 231.181 200.894 221.546 198.367 213C194.849 201.104 185.297 190.873 184.629 178C184.492 175.364 185.605 172.6 186 170C189.479 170.985 191.57 171.237 195 170L197 180C199.221 180.458 199.593 181.113 201 183C203.228 177.639 199.766 174.056 198.5 169.005C198.065 167.271 198.145 165.094 200.191 164.457C203.536 163.414 207.138 166.862 211 166C211.54 169.39 211.137 172.584 211 176C212.195 175.402 211.977 175.534 213 174L214 180L216 180C216 173.351 214.957 167.513 214 161C218.682 166.32 221.828 168.787 220 176C221.582 178.057 221.826 179.388 222 182C225.816 176.872 224.874 170.065 226 164L228 164C229.665 171.033 229.755 176.795 230 184L232 184C232.597 179.942 233.812 176.123 234 172L240 174C238.911 176.458 237.909 178.12 236 180C236.299 182.392 236.32 183.044 235 185C235.876 189.488 235.085 193.597 234 198C235.709 200.438 235.469 202.059 235 205C238.447 205.888 241.51 208.476 244 211C246.619 209.72 249.093 209.161 252 209L253 204L256 208C257.195 207.402 256.977 207.534 258 206C259.255 207.666 260.159 209.099 261 211C261.779 209.231 261.912 207.964 262 206L267 206C268.263 203.342 269.045 202.342 272 202C271.154 199.275 271.583 198.452 274 197C273.047 194.514 273.213 193.947 275 192C270.785 182.958 273.274 174.263 275 165L272 164L273 160C267.307 157.366 258.786 150.131 253 157C250.49 156.684 249.29 156.919 247 158C245.299 154.063 242.289 151.494 239.951 147.961C236.134 142.194 232.704 136.072 227.671 131.2C221.907 125.619 215.921 124.178 209 121.021C204.485 118.961 201.043 116.366 196 115.465C192.984 114.925 189.996 115.472 187 115.08C181.341 114.34 176.991 111.749 171 112.04C165.957 112.286 162.646 115.175 158 116.491C154.497 117.483 150.6 116.989 147 117.594C141.907 118.45 136.892 120.397 132 122.04C126.041 124.042 120.358 127.486 115.424 131.344C112.352 133.746 108.348 138.081 104.285 138.572C98.9775 139.213 96.4609 131.803 95.0764 128.045C94.3488 126.07 92.9058 123.19 90.2739 124.407C81.9973 128.236 94.4361 136.036 95.365 139.001C96.9466 144.049 89.0009 145.695 96 150L96 152C92.835 152.757 89.1712 152.512 87 155C84.2658 153.19 81.5486 151.29 79.3403 148.829C68.8643 137.156 75.0051 123.946 78 111C68.8947 120.385 71.9678 135.887 75 147C66.4251 139.104 69.4062 122.666 73.2045 113C76.0527 105.752 80.1111 97.1084 85.8079 91.6836C90.6299 87.0919 98.0269 85.6976 103.83 82.5255C108.888 79.761 112.972 75.5251 118 72.7539C125.451 68.6472 134.217 66.4723 142 63C136.164 69.2933 128.444 69.2843 121.039 72.5903C115.196 75.1992 111.364 80.1284 105.999 83.3904C102.588 85.4645 98.6643 86.3564 95.1698 88.2315C86.7002 92.7759 80.1441 100.543 78 110C81.8667 105.55 83.9069 99.7266 88.2091 95.6188C94.0018 90.0879 100.476 89.5045 106.907 85.6204C111.317 82.9567 114.486 78.6535 119.001 76.0594C125.762 72.1749 134.588 71.6966 140.79 67.0309C145.785 63.2737 148.605 55.8737 150 50C145.605 54.0273 143.163 59.5606 137.91 62.7562C131.231 66.8186 122.936 67.8294 116.001 71.4375C110.63 74.2314 106.499 78.7503 101 81.5216C95.7986 84.1429 89.8434 85.3802 85.4252 89.3904C75.7139 98.205 68.8529 114.948 68.0934 128C67.7478 133.938 69.2573 140.123 70 146C65.8348 142.068 64.7105 137.394 63.2662 132C58.1031 112.717 64.8854 97.4645 69.4861 79C70.8856 73.3831 70.254 67.5573 71.5293 62C72.4209 58.1148 74.4834 54.5385 76.2469 51C81.3517 40.7574 84 31.4218 84 20C84 16.1096 85.1119 10.7192 82 8z"/>
<path style="fill:#c89e6c; stroke:none;" d="M82.3333 9.66666C82.2777 9.72229 82.2223 10.7777 82.6667 10.3333C82.7221 10.2779 82.7778 9.22214 82.3333 9.66666M84 13L84 28C85.7404 23.8523 85.7404 17.1477 84 13M81 16L81 25C82.2561 22.0059 82.2561 18.9941 81 16M80 29L81 30L80 29M81 31L81 34C81.6961 32.4463 81.6961 32.5537 81 31M83.3333 32.6667C83.2777 32.7223 83.2223 33.7777 83.6667 33.3333C83.7221 33.2779 83.7778 32.2221 83.3333 32.6667M79 33L80 34L79 33M78 35L79 36L78 35M80.3333 35.6667C80.2777 35.7223 80.2223 36.7777 80.6667 36.3333C80.7222 36.2779 80.7778 35.2222 80.3333 35.6667M82.3333 35.6667C82.2777 35.7223 82.2223 36.7777 82.6667 36.3333C82.7222 36.2778 82.7778 35.2222 82.3333 35.6667M77 37L78 38L77 37M79 38L74 49C77.3986 46.7547 79.7111 42.0593 79 38M81 38L82 39L81 38M76.3333 39.6667C76.2777 39.7223 76.2222 40.7778 76.6667 40.3333C76.7222 40.2778 76.7778 39.2222 76.3333 39.6667M80 41L81 42L80 41M74 44L75 45L74 44M79 44L80 45L79 44M78 46L79 47L78 46M72 47L73 48L72 47M77 48L78 49L77 48M71 49L72 50L71 49z"/>
<path style="fill:#fefefd; stroke:none;" d="M74 49L75 50L74 49z"/>
<path style="fill:#c89e6c; stroke:none;" d="M73 50C71.5268 52.8382 70.8086 54.8142 71 58C72.6855 55.4945 73.8503 52.795 75 50L73 50M76 50L77 51L76 50M148 50L149 51L148 50M150.333 50.6667C150.278 50.7221 150.222 51.7779 150.667 51.3333C150.722 51.2777 150.778 50.2222 150.333 50.6667M70 51L71 52L70 51M75 52L76 53L75 52M147 52L148 53L147 52M149.333 52.6667C149.278 52.7221 149.222 53.7779 149.667 53.3333C149.722 53.2777 149.778 52.2223 149.333 52.6667M69.3333 53.6667C69.2778 53.7222 69.2222 54.7778 69.6667 54.3333C69.7222 54.2778 69.7778 53.2222 69.3333 53.6667M74 54L75 55L74 54M145 55L146 56L145 55M148 55L149 56L148 55M68.3333 56.6667C68.2779 56.7222 68.2222 57.7778 68.6667 57.3333C68.7223 57.2777 68.7777 56.2223 68.3333 56.6667M144 56L145 57L144 56z"/>
<path style="fill:#fefefd; stroke:none;" d="M70 57L70 60C70.6961 58.4463 70.6961 58.5537 70 57z"/>
<path style="fill:#c89e6c; stroke:none;" d="M147 57L148 58L147 57M72 58L73 59L72 58M143 58L144 59L143 58M67 59L67 66C68.0595 63.4657 68.0595 61.5343 67 59M142 59L143 60L142 59M146 59L147 60L146 59M69 60L69 67C70.0095 64.767 70.4052 62.3956 71 60L69 60M140 60L139 62L141 62C141 60.1468 141.3 60.6498 140 60M71.3333 61.6667C71.2778 61.7222 71.2222 62.7778 71.6667 62.3333C71.7223 62.2777 71.7778 61.2223 71.3333 61.6667M145 61L146 62L145 61M138 62L139 63L138 62M144 62L145 63L144 62M136 63L137 64L136 63M111 80C105.889 79.7578 101.525 83.3427 97 85.4969C93.5195 87.1537 89.6825 87.7942 86.6157 90.2492C77.8594 97.2588 71.8292 112.137 70.2855 123C69.2676 130.163 67.8486 142.641 75 147C72.9909 135.324 68.2976 120.34 79 111C78.8146 94.6918 95.991 90.1302 106.996 83.3904C112.722 79.884 116.577 74.7291 123.004 72.1736C129.661 69.5268 137.838 69.5926 142 63C134.086 65.4389 125.439 68.5714 118 72.2384C114.407 74.0095 111.7 76.08 111 80M127 66C129.992 66.6311 132.961 65.4455 136 65C132.752 63.7344 130.141 64.6753 127 66M143 64L144 65L143 64M124.667 67.3333C124.222 67.7778 125.278 67.7223 125.333 67.6667C125.778 67.2223 124.722 67.2777 124.667 67.3333M140 67L141 68L140 67M118 69C120.239 69.8108 121.647 69.5287 124 69C121.837 68.3244 120.268 68.613 118 69M138 68C136.255 68.8901 134.875 69.4529 133 70C135.013 71.1062 139.108 70.978 138 68M66 69L66 73C66.7102 71.2405 66.7102 70.7595 66 69M68 69L67 80C69.0418 76.5915 69.5455 72.6914 68 69M117 70L118 71L117 70M115 71L116 72L115 71M129 71L130 72L129 71M113 72L114 73L113 72M126.667 72.3333C126.222 72.7778 127.278 72.7223 127.333 72.6667C127.778 72.2222 126.722 72.2778 126.667 72.3333M70 73L70 76C70.6961 74.4463 70.6961 74.5537 70 73M112 73L113 74L112 73M124.667 73.3333C124.222 73.7778 125.278 73.7222 125.333 73.6667C125.778 73.2223 124.722 73.2777 124.667 73.3333M122 74L123 75L122 74M110 75L111 76L110 75M119 75L120 76L119 75M65 76L65 79C65.6961 77.4463 65.6961 77.5537 65 76M117 76L118 77L117 76M105 78C106.809 78.5743 107.069 78.4653 109 78C107.341 77.5935 106.758 77.6914 105 78M69 79L70 80L69 79M104 79L105 80L104 79z"/>
<path style="fill:#fefefd; stroke:none;" d="M109.667 79.3333C109.222 79.7778 110.278 79.7223 110.333 79.6667C110.778 79.2222 109.722 79.2778 109.667 79.3333z"/>
<path style="fill:#c89e6c; stroke:none;" d="M114 79L115 80L114 79M64.3333 80.6667C64.2778 80.7222 64.2222 81.7778 64.6667 81.3333C64.7223 81.2777 64.7777 80.2223 64.3333 80.6667M102 80L103 81L102 80M112.333 80.6667C112.278 80.7222 112.222 81.7778 112.667 81.3333C112.722 81.2777 112.778 80.2223 112.333 80.6667M66.3333 81.6667C66.2778 81.7222 66.2222 82.7778 66.6667 82.3333C66.7223 82.2777 66.7777 81.2223 66.3333 81.6667M98 82C99.6593 82.4065 100.242 82.3086 102 82C100.191 81.4257 99.9312 81.5347 98 82M68 82L69 83L68 82M110.667 82.3333C110.222 82.7778 111.278 82.7222 111.333 82.6667C111.778 82.2222 110.722 82.2778 110.667 82.3333M96 83L97 84L96 83M63 84L64 85L63 84M65 84C62.7682 90.8613 60.3167 97.7359 60 105C62.6193 100.109 66.8822 89.3059 65 84M67.3333 84.6667C67.2778 84.7222 67.2222 85.7778 67.6667 85.3333C67.7223 85.2777 67.7778 84.2223 67.3333 84.6667M93 84L94 85L93 84M90.6667 85.3333C90.2222 85.7778 91.2778 85.7222 91.3333 85.6667C91.7778 85.2222 90.7222 85.2778 90.6667 85.3333M88.6667 86.3333C88.2221 86.7779 89.2778 86.7222 89.3333 86.6667C89.7778 86.2222 88.7222 86.2778 88.6667 86.3333M87 87L88 88L87 87M102.667 87.3333C102.222 87.7778 103.278 87.7222 103.333 87.6667C103.778 87.2223 102.722 87.2777 102.667 87.3333M66.3333 88.6667C66.2778 88.7222 66.2222 89.7778 66.6667 89.3333C66.7223 89.2777 66.7778 88.2223 66.3333 88.6667M85 88L86 89L85 88M98.6667 88.3333C98.2222 88.7778 99.2778 88.7222 99.3333 88.6667C99.7778 88.2222 98.7222 88.2778 98.6667 88.3333M95 91L98 90C96.2218 89.0446 95.9786 89.2338 95 91M61.3333 90.6667C61.2777 90.7223 61.2223 91.7777 61.6667 91.3333C61.7222 91.2778 61.7778 90.2222 61.3333 90.6667M84 90L85 91L84 90M65.3333 91.6667C65.2778 91.7222 65.2222 92.7778 65.6667 92.3333C65.7223 92.2777 65.7778 91.2222 65.3333 91.6667M83 91L84 92L83 91M93 91L94 92L93 91M82 92L83 93L82 92M91 92L92 93L91 92M60 93L60 96C60.6961 94.4463 60.6961 94.5537 60 93M81 93L82 94L81 93M90 93L91 94L90 93M64.3333 94.6667C64.2778 94.7222 64.2222 95.7778 64.6667 95.3333C64.7223 95.2777 64.7777 94.2223 64.3333 94.6667M89 94L90 95L89 94M59.3333 96.6667C59.2777 96.7223 59.2222 97.7778 59.6667 97.3333C59.7222 97.2778 59.7778 96.2222 59.3333 96.6667M86 96L87 97L86 96M78 97L79 98L78 97M63 98L64 99L63 98M85 98L86 99L85 98M77 99L78 100L77 99M84 100L85 101L84 100M76.3333 101.667C76.2778 101.722 76.2222 102.778 76.6667 102.333C76.7223 102.278 76.7777 101.222 76.3333 101.667M83 101L84 102L83 101M58 102L59 103L58 102M62 102L62 105C62.6961 103.446 62.6961 103.554 62 102M82 103L83 104L82 103M57 105L57 111C57.9511 108.715 57.9511 107.285 57 105M74 105L75 106L74 105M80 106L81 107L80 106M73.3333 107.667C73.2778 107.722 73.2222 108.778 73.6667 108.333C73.7222 108.278 73.7777 107.222 73.3333 107.667M59 108L59 115C60.0595 112.466 60.0595 110.534 59 108M61.3333 108.667C61.2777 108.722 61.2223 109.778 61.6667 109.333C61.7222 109.278 61.7778 108.222 61.3333 108.667M79 108L80 109L79 108M72 109L73 110L72 109M168 111C169.506 111.683 170.315 111.826 172 112C170.494 111.317 169.685 111.174 168 111M71.3333 112.667C71.2778 112.722 71.2222 113.778 71.6667 113.333C71.7223 113.278 71.7777 112.222 71.3333 112.667M166 112L167 113L166 112M77 113L78 114L77 113M163 113L164 114L163 113M182 113L183 114L182 113M188 114C190.613 115.098 193.165 114.993 196 115C193.242 113.565 191.057 113.52 188 114M161.667 114.333C161.222 114.778 162.278 114.722 162.333 114.667C162.778 114.222 161.722 114.278 161.667 114.333z"/>
<path style="fill:#e4431a; stroke:none;" d="M165.192 115.025C162.578 116.634 163.192 118.9 165.248 120.576C175.415 128.867 183.253 139.978 186.447 153C187.41 156.928 186.459 160.965 187.148 164.891C187.669 167.861 190.036 169.166 192.834 167.777C199.472 164.48 200.478 156.495 199.829 150C198.313 134.826 191.811 116.661 175 114.834C171.918 114.499 168.061 113.258 165.192 115.025z"/>
<path style="fill:#c89e6c; stroke:none;" d="M184 114L185 115L184 114M160 115L161 116L160 115M185 115C186.248 115.685 186.548 115.749 188 116C186.752 115.315 186.452 115.251 185 115M196 115C197.248 115.685 197.549 115.749 199 116C197.752 115.315 197.452 115.251 196 115M70 116L71 117L70 116M76 116L77 117L76 116M155 116C156.769 116.779 158.036 116.912 160 117C158.231 116.221 156.964 116.088 155 116z"/>
<path style="fill:#e4431a; stroke:none;" d="M189 116C190.055 119.881 192.53 122.472 194.296 126.015C196.459 130.356 198.052 135.354 199.431 140C200.659 144.14 201.606 148.69 201.91 153C202.081 155.412 201.56 158.324 202.599 160.584C203.43 162.393 205.599 163.655 207 165C222.409 159.225 215.861 130.15 206.54 121.494C201.924 117.207 194.984 116.588 189 116z"/>
<path style="fill:#c89e6c; stroke:none;" d="M144 117C145.506 117.683 146.315 117.826 148 118C146.494 117.317 145.685 117.174 144 117M203 117L204 118L203 117M69.3333 118.667C69.2778 118.722 69.2222 119.778 69.6667 119.333C69.7223 119.278 69.7778 118.222 69.3333 118.667M141 118L142 119L141 118z"/>
<path style="fill:#e4431a; stroke:none;" d="M95 144L94 145C97.2853 152.43 100.615 158.583 101 167L108 167C107.997 162.808 107.586 159.099 106.76 155C106.174 152.094 106.197 148.841 107.653 146.153C109.194 143.308 112.188 143.298 113.807 146.153C116.226 150.419 112.258 154.656 112.454 159C112.691 164.234 116.106 168.874 116.486 174C116.777 177.933 114.543 181.541 113 185C132.025 193.88 148.12 195.377 167.285 185.63C171.985 183.24 177.97 180.771 181.451 176.671C193.952 161.945 180.241 136.671 168.572 126.12C165.153 123.028 161.514 120.073 157 118.79C151.872 117.333 146.889 119.133 142 120.659C132.794 123.532 123.816 126.967 116.08 132.897C109.704 137.785 103.468 143.767 95 144z"/>
<path style="fill:#c89e6c; stroke:none;" d="M205 118L206 119L205 118M75 119L76 120L75 119M136 121L141 120C138.7 119.084 137.623 119.121 136 121M206 119C206.545 120.635 206.365 120.455 208 121L208 119L206 119M59 120C59.0016 134.853 63.6268 155.45 76 165C73.6472 158.583 68.9606 153.429 66.5332 147C63.2737 138.367 62.6961 128.233 59 120M133 121L134 122L133 121z"/>
<path style="fill:#e4431a; stroke:none;" d="M208 121L209 122L208 121z"/>
<path style="fill:#c89e6c; stroke:none;" d="M209 121C211.052 121.874 212.747 121.953 215 122C212.948 121.126 211.253 121.047 209 121M61 122L61 126C61.7102 124.24 61.7102 123.76 61 122M74 122L75 123L74 122M88 125L92 123C89.7774 122.631 89.2655 123.14 88 125M130 122L131 123L130 122M215 122L216 123L215 122M68.3333 123.667C68.2778 123.722 68.2222 124.778 68.6667 124.333C68.7223 124.278 68.7777 123.222 68.3333 123.667M92.6667 123.333C92.2222 123.778 93.2778 123.722 93.3333 123.667C93.7778 123.222 92.7222 123.278 92.6667 123.333M125 125C126.58 124.316 126.777 124.195 128 123C126.42 123.684 126.223 123.805 125 125M216.667 123.333C216.222 123.778 217.278 123.722 217.333 123.667C217.778 123.222 216.722 123.278 216.667 123.333z"/>
<path style="fill:#e4431a; stroke:none;" d="M212 124C213.706 131.372 216.759 138.38 217.331 146C217.926 153.927 215.128 158.897 220 166C231.112 162.442 236.18 148.779 231.301 138.171C228.345 131.744 218.839 124.914 212 124z"/>
<path style="fill:#c89e6c; stroke:none;" d="M218 124L219 125L218 124M94 125L95 126L94 125M123.667 125.333C123.222 125.778 124.278 125.722 124.333 125.667C124.778 125.222 123.722 125.278 123.667 125.333M220 125L221 126L220 125M57.3333 126.667C57.2777 126.722 57.2222 127.778 57.6667 127.333C57.7222 127.278 57.7778 126.222 57.3333 126.667M73 126L73 136C74.3457 132.793 74.3457 129.207 73 126M87 126L87 131C87.8299 128.969 87.8299 128.03 87 126M121 126L122 127L121 126z"/>
<path style="fill:#e4431a; stroke:none;" d="M122 126L123 127L122 126z"/>
<path style="fill:#c89e6c; stroke:none;" d="M222 126L223 127L222 126M120 127L121 128L120 127M223 127L224 128L223 127M62.3333 128.667C62.2777 128.722 62.2222 129.778 62.6667 129.333C62.7222 129.278 62.7778 128.222 62.3333 128.667M89.3333 128.667C89.2778 128.722 89.2222 129.778 89.6667 129.333C89.7223 129.278 89.7777 128.222 89.3333 128.667M95.3333 128.667C95.2778 128.722 95.2222 129.778 95.6667 129.333C95.7223 129.278 95.7777 128.222 95.3333 128.667M119 128L120 129L119 128M224 128L225 129L224 128M117 129L118 130L117 129z"/>
<path style="fill:#e4431a; stroke:none;" d="M225 129L226 130L225 129z"/>
<path style="fill:#c89e6c; stroke:none;" d="M116 130L117 131L116 130M227 130L228 131L227 130M93.3333 131.667C93.2778 131.722 93.2222 132.778 93.6667 132.333C93.7223 132.278 93.7778 131.222 93.3333 131.667M114 131L113 133L115 133C115 131.147 115.3 131.65 114 131M228 131L229 132L228 131M58.3333 132.667C58.2777 132.722 58.2222 133.778 58.6667 133.333C58.7222 133.278 58.7778 132.222 58.3333 132.667M63 132L64 133L63 132M90.6667 132.333C90.2222 132.778 91.2778 132.722 91.3333 132.667C91.7778 132.222 90.7222 132.278 90.6667 132.333M96 133L97 134L96 133M229.667 133.333C229.222 133.778 230.278 133.722 230.333 133.667C230.778 133.222 229.722 133.278 229.667 133.333M68 134L68 139C68.8299 136.97 68.8299 136.031 68 134M90 134L91 135L90 134M97 134L98 135L97 134M109 136C110.58 135.316 110.777 135.195 112 134C110.42 134.684 110.223 134.805 109 136M92.6667 135.333C92.2222 135.778 93.2778 135.722 93.3333 135.667C93.7778 135.222 92.7222 135.278 92.6667 135.333M98 135L99 136L98 135M231 135L232 136L231 135M59.3333 136.667C59.2777 136.722 59.2222 137.778 59.6667 137.333C59.7222 137.278 59.7778 136.222 59.3333 136.667M64.3333 136.667C64.2778 136.722 64.2222 137.778 64.6667 137.333C64.7223 137.278 64.7777 136.222 64.3333 136.667M94.3333 136.667C94.2778 136.722 94.2222 137.778 94.6667 137.333C94.7223 137.278 94.7777 136.222 94.3333 136.667M99 136L100 137L99 136M108 136L109 137L108 136M107 137L108 138L107 137z"/>
<path style="fill:#e4431a; stroke:none;" d="M232 137L233 138L232 137z"/>
<path style="fill:#c89e6c; stroke:none;" d="M95 138C95.6836 139.58 95.8048 139.777 97 141C96.3164 139.42 96.1952 139.223 95 138M98 138L99 139L98 138M101 138L102 139L101 138M105 138L106 139L105 138M65 139L66 140L65 139M103 139L104 140L103 139M234 139L235 140L234 139M60.3333 140.667C60.2777 140.722 60.2222 141.778 60.6667 141.333C60.7222 141.278 60.7778 140.222 60.3333 140.667M74 140L75 141L74 140M235 140L236 141L235 140M236 141L237 142L236 141M51.6667 142.333C51.2222 142.778 52.2778 142.722 52.3333 142.667C52.7778 142.222 51.7222 142.278 51.6667 142.333M56.6667 142.333C56.2222 142.778 57.2778 142.722 57.3333 142.667C57.7778 142.222 56.7222 142.278 56.6667 142.333M66 142L67 143L66 142M69 142L70 143L69 142M75 142L76 143L75 142M94.6667 142.333C94.2222 142.778 95.2778 142.722 95.3333 142.667C95.7777 142.222 94.7222 142.278 94.6667 142.333M43 144C44.9433 144.622 45.949 144.436 48 144C46.1535 143.532 44.9315 143.699 43 144M60 143L61 144L60 143M92 143L93 144L92 143M237 143L238 146C238.685 144.752 238.749 144.452 239 143L237 143z"/>
<path style="fill:#e4431a; stroke:none;" d="M46.6667 144.333C46.2222 144.778 47.2778 144.722 47.3333 144.667C47.7778 144.222 46.7222 144.278 46.6667 144.333M63.3333 144.667C63.2777 144.722 63.2223 145.778 63.6667 145.333C63.7222 145.278 63.7778 144.222 63.3333 144.667z"/>
<path style="fill:#c89e6c; stroke:none;" d="M67 144C68.1393 145.015 68.6116 145.309 70 146C69.0198 144.217 69.0924 144.406 67 144M91 144L91 147C91.6961 145.446 91.6961 145.554 91 144z"/>
<path style="fill:#e4431a; stroke:none;" d="M42 145C42.6498 146.3 42.1468 146 44 146C41.5792 147.221 40 147.413 40 150C34.7101 151.49 32.5882 154.934 31 160C35.2559 159.298 40.7443 159.005 45 159.893C47.7446 160.465 49.8643 163.367 52.8272 162.958C59.0224 162.105 61.6675 151.882 63 147C56.1483 144.109 49.2114 145.602 42 145z"/>
<path style="fill:#c89e6c; stroke:none;" d="M76 145L77 146L76 145z"/>
<path style="fill:#e4431a; stroke:none;" d="M235 145C234.785 150 233.692 154.385 231.781 159C230.74 161.514 229.218 165.077 231.032 167.638C233.717 171.43 238.294 166.676 239.436 163.985C242.176 157.529 240.148 149.429 235 145z"/>
<path style="fill:#c89e6c; stroke:none;" d="M39 146L40 147L39 146z"/>
<path style="fill:#e4431a; stroke:none;" d="M66.3333 146.667C66.2778 146.722 66.2222 147.778 66.6667 147.333C66.7223 147.278 66.7778 146.222 66.3333 146.667z"/>
<path style="fill:#c89e6c; stroke:none;" d="M77 146L78 147L77 146M111 146C111.474 149.607 110.409 151.742 109 155C113.354 153.469 113.6 149.45 111 146z"/>
<path style="fill:#e4431a; stroke:none;" d="M112 146L113 147L112 146z"/>
<path style="fill:#c89e6c; stroke:none;" d="M37 147L38 148L37 147M78.3333 147.667C78.2778 147.722 78.2222 148.778 78.6667 148.333C78.7223 148.278 78.7777 147.222 78.3333 147.667M239 147L240 148L239 147M36 148L37 149L36 148z"/>
<path style="fill:#e4431a; stroke:none;" d="M71 148L70 149C72.6516 158.183 78.6233 166.293 88 169C87.9988 157.713 82.3547 150.87 71 148z"/>
<path style="fill:#c89e6c; stroke:none;" d="M35 149L36 150L35 149z"/>
<path style="fill:#e4431a; stroke:none;" d="M67 149L68 150L67 149z"/>
<path style="fill:#c89e6c; stroke:none;" d="M79 149L80 150L79 149M94 149C91.8206 150.726 89.6981 151.273 87 152C89.9047 152.894 92.9476 152.129 96 152C95.3164 150.42 95.1952 150.223 94 149M240 149L241 150L240 149M34 150L35 151L34 150M241 150L242 151L241 150M33 151L34 152L33 151z"/>
<path style="fill:#e4431a; stroke:none;" d="M68 151L69 152L68 151z"/>
<path style="fill:#c89e6c; stroke:none;" d="M82 151L83 152L82 151M242 151L243 152L242 151M32 152L33 153L32 152z"/>
<path style="fill:#e4431a; stroke:none;" d="M63 152C59.4373 166.132 44.9749 171.001 33.0895 175.737C30.5344 176.755 28.4851 178.807 26 180C27.6402 178.384 28.7939 176.958 30 175L21 178C22.7505 179.255 23.8574 179.614 26 180C21.9217 180.724 17.163 181.174 13 181C14.2727 185.082 17.4358 186.808 20.9105 189.127C29.6091 194.933 38.5969 197.999 49 198C48.2002 196.091 47.6551 194.545 45.6559 193.583C43.7289 192.657 39.2065 192.864 39.2068 189.79C39.2071 186.233 44.2192 184.57 47 184.189C51.8365 183.527 58.3599 184.195 63 185.698C65.5353 186.519 68.0247 188.667 70.8295 188.215C76.1043 187.365 78.5542 180.378 83 178C81.5775 172.144 76.7127 169.84 73.0008 165.482C69.3361 161.18 67.1621 155.842 63 152z"/>
<path style="fill:#c89e6c; stroke:none;" d="M83 152L84 153L83 152z"/>
<path style="fill:#e4431a; stroke:none;" d="M90 152C91.769 152.779 93.0359 152.912 95 153C93.2309 152.221 91.9641 152.088 90 152z"/>
<path style="fill:#c89e6c; stroke:none;" d="M254 152C253.014 153.478 253 153.203 253 155C254.289 153.557 254.401 153.766 254 152M31 153L32 154L31 153M84 153C85.2484 153.685 85.5484 153.749 87 154C85.7517 153.315 85.4515 153.251 84 153z"/>
<path style="fill:#e4431a; stroke:none;" d="M108.333 153.667C108.278 153.722 108.222 154.778 108.667 154.333C108.722 154.278 108.778 153.222 108.333 153.667z"/>
<path style="fill:#c89e6c; stroke:none;" d="M244 153L245 154L244 153M258 153L259 154L258 153M263.667 153.333C263.222 153.778 264.278 153.722 264.333 153.667C264.778 153.222 263.722 153.278 263.667 153.333M30 154L31 155L30 154z"/>
<path style="fill:#e4431a; stroke:none;" d="M85.6667 154.333C85.2222 154.778 86.2778 154.722 86.3333 154.667C86.7778 154.222 85.7222 154.278 85.6667 154.333M89 154L88 155C89.3935 159.466 89.9964 163.318 90 168C92.9514 165.663 94.2546 163.698 95 160L99 161C97.6609 158.606 97.1789 156.738 97 154L89 154M242 154C241.999 160.691 240.802 164.962 238 171L245 171C246.331 165.968 247.227 162.167 246 157C243.739 156.719 243.43 155.736 242 154z"/>
<path style="fill:#c89e6c; stroke:none;" d="M245 154L246 155L245 154M260 154C261.248 154.685 261.548 154.749 263 155C261.752 154.315 261.452 154.251 260 154M29 155L30 156L29 155z"/>
<path style="fill:#e4431a; stroke:none;" d="M70 155L71 156L70 155z"/>
<path style="fill:#c89e6c; stroke:none;" d="M243 155C243.684 156.58 243.805 156.777 245 158L245 155L243 155M246 155L247 156L246 155M249.667 155.333C249.222 155.778 250.278 155.722 250.333 155.667C250.778 155.222 249.722 155.278 249.667 155.333M266 155L268 158C269.118 155.86 268.251 155.473 266 155M28 156L29 157L28 156M31 156L29 161C30.8476 159.22 31.5661 158.509 31 156z"/>
<path style="fill:#e4431a; stroke:none;" d="M251.667 156.333C251.222 156.778 252.278 156.722 252.333 156.667C252.778 156.222 251.722 156.278 251.667 156.333M249 159L249 167L251 164C251.986 165.479 252 165.203 252 167C255.177 167.145 257.823 168.37 261 168C262.634 170.749 263.817 171.134 267 171C266.955 173.656 269.343 177.381 271.807 173.663C275.968 167.384 268.028 157.853 261.996 156.707C257.812 155.912 253.082 158.155 249 159z"/>
<path style="fill:#c89e6c; stroke:none;" d="M42.3333 157.667C42.2778 157.722 42.2222 158.778 42.6667 158.333C42.7222 158.278 42.7778 157.222 42.3333 157.667z"/>
<path style="fill:#e4431a; stroke:none;" d="M69 157L70 158L69 157z"/>
<path style="fill:#c89e6c; stroke:none;" d="M247.667 157.333C247.222 157.778 248.278 157.722 248.333 157.667C248.778 157.222 247.722 157.278 247.667 157.333M27 158L28 159L27 158M26 159L27 160L26 159z"/>
<path style="fill:#e4431a; stroke:none;" d="M110 159L111 160L110 159z"/>
<path style="fill:#c89e6c; stroke:none;" d="M270 159L271 160L270 159M32 161C34.2515 162.088 36.5348 162.519 39 163C36.6206 160.827 35.191 160.577 32 161M110 160C110.001 165.614 110.205 170.01 113 175C115.574 171.119 111.846 164.075 110 160M25.3333 161.667C25.2778 161.722 25.2222 162.778 25.6667 162.333C25.7222 162.278 25.7778 161.222 25.3333 161.667M97.6667 161.333C97.2222 161.778 98.2778 161.722 98.3333 161.667C98.7777 161.222 97.7222 161.278 97.6667 161.333z"/>
<path style="fill:#e4431a; stroke:none;" d="M214 161L215 162L214 161z"/>
<path style="fill:#c89e6c; stroke:none;" d="M31 162L32 163L31 162M43 162C44.2483 162.685 44.5485 162.749 46 163C44.7516 162.315 44.4516 162.251 43 162z"/>
<path style="fill:#fefefd; stroke:none;" d="M97 162C95.1217 165.327 92.9961 168.304 92 172C97.2446 172.663 105.411 174.908 109 170C102.636 169.978 98.8931 169.097 99 162L97 162z"/>
<path style="fill:#c89e6c; stroke:none;" d="M214 162L214 165C215.015 163.861 215.309 163.388 216 162L214 162M272.333 162.667C272.278 162.722 272.222 163.778 272.667 163.333C272.722 163.278 272.778 162.222 272.333 162.667M29.6667 163.333C29.2222 163.778 30.2778 163.722 30.3333 163.667C30.7778 163.222 29.7222 163.278 29.6667 163.333z"/>
<path style="fill:#e4431a; stroke:none;" d="M44.6667 163.333C44.2222 163.778 45.2778 163.722 45.3333 163.667C45.7778 163.222 44.7222 163.278 44.6667 163.333M111 163L111 166C111.696 164.446 111.696 164.554 111 163z"/>
<path style="fill:#c89e6c; stroke:none;" d="M216 163L217 164L216 163M24 164C24.4057 166.092 24.2167 166.02 26 167C25.3086 165.611 25.0155 165.139 24 164M27.6667 164.333C27.2222 164.778 28.2778 164.722 28.3333 164.667C28.7778 164.222 27.7222 164.278 27.6667 164.333z"/>
<path style="fill:#e4431a; stroke:none;" d="M76 164L75 165C76.1034 166.457 76.5433 166.897 78 168C77.4892 166.048 77.2667 165.543 76 164z"/>
<path style="fill:#c89e6c; stroke:none;" d="M95.3333 164.667C95.2778 164.722 95.2222 165.778 95.6667 165.333C95.7223 165.278 95.7778 164.222 95.3333 164.667M203 164L204 165L203 164z"/>
<path style="fill:#e4431a; stroke:none;" d="M226.667 164.333C226.222 164.778 227.278 164.722 227.333 164.667C227.778 164.222 226.722 164.278 226.667 164.333z"/>
<path style="fill:#c89e6c; stroke:none;" d="M26 165L27 166L26 165z"/>
<path style="fill:#e4431a; stroke:none;" d="M47 165C47.9802 166.783 47.9076 166.594 50 167C48.8606 165.985 48.3884 165.691 47 165z"/>
<path style="fill:#c89e6c; stroke:none;" d="M98.3333 165.667C98.2778 165.722 98.2222 166.778 98.6667 166.333C98.7223 166.278 98.7777 165.222 98.3333 165.667M197 165L197 168C197.696 166.446 197.696 166.554 197 165M204 165L205 166L204 165M227 165L228 166L227 165M275.333 165.667C275.278 165.722 275.222 166.778 275.667 166.333C275.722 166.278 275.778 165.222 275.333 165.667M41 166L42 167L41 166z"/>
<path style="fill:#e4431a; stroke:none;" d="M36 172C40.4868 173.231 43.9856 169.763 46 166L36 172z"/>
<path style="fill:#c89e6c; stroke:none;" d="M94 166L95 167L94 166M205 166L206 167L205 166M210 166L211 167L210 166M218 166L219 167L218 166M225 166L225 169C225.696 167.446 225.696 167.554 225 166z"/>
<path style="fill:#e4431a; stroke:none;" d="M228 166L229 167L228 166z"/>
<path style="fill:#c89e6c; stroke:none;" d="M40 167L41 168L40 167M78 167C84.4569 176.067 100.937 184.002 111 176C105.697 175.103 100.367 176.518 95 175.142C88.8615 173.568 83.8643 169.219 78 167M207.667 167.333C207.222 167.778 208.278 167.722 208.333 167.667C208.778 167.222 207.722 167.278 207.667 167.333M211 167L211 171C211.71 169.241 211.71 168.759 211 167M215 167L216 168L215 167M219 167L220 168L219 167M228 167L229 168L228 167M92 168L93 169L92 168M99 168L100 169L99 168M100 169C102.613 170.098 105.165 169.993 108 170C105.362 168.491 103.016 168.831 100 169M196 168C196.362 172.374 197.656 175.333 200 179C200.356 175.367 197.952 171.083 196 168M213 168C213.307 170.123 213.382 170.686 215 172C214.436 170.248 214.081 169.458 213 168z"/>
<path style="fill:#e4431a; stroke:none;" d="M248 168C242.13 177.66 247.625 187.467 251.323 197C252.773 200.735 256.828 207.67 261 203C262.023 204.534 261.805 204.402 263 205C270.681 199.081 275.052 185.415 267.811 177.34C263.155 172.148 254.614 169.383 248 168z"/>
<path style="fill:#c89e6c; stroke:none;" d="M30 170C32.9047 170.894 35.9476 170.129 39 170C35.8949 168.699 33.1917 169.058 30 170M91 169L91 172C91.6961 170.446 91.6961 170.554 91 169z"/>
<path style="fill:#e4431a; stroke:none;" d="M113 169L114 170L113 169z"/>
<path style="fill:#c89e6c; stroke:none;" d="M198 169L199 170L198 169M229 169L230 170L229 169z"/>
<path style="fill:#e4431a; stroke:none;" d="M186 170C187.248 170.685 187.548 170.749 189 171C187.752 170.315 187.452 170.251 186 170z"/>
<path style="fill:#c89e6c; stroke:none;" d="M193.667 170.333C193.222 170.778 194.278 170.722 194.333 170.667C194.778 170.222 193.722 170.278 193.667 170.333M223 170L223 174C223.71 172.24 223.71 171.759 223 170M274 170C274.307 172.123 274.382 172.686 276 174C275.436 172.248 275.081 171.458 274 170M189 171L190 172L189 171M192 171L193 172L192 171M199 171L200 172L199 171M221 171L222 172L221 171M230 171L231 172L230 171M271.333 171.667C271.278 171.722 271.222 172.778 271.667 172.333C271.722 172.278 271.778 171.222 271.333 171.667z"/>
<path style="fill:#e4431a; stroke:none;" d="M31 174L34 173C32.2218 172.045 31.9786 172.234 31 174z"/>
<path style="fill:#c89e6c; stroke:none;" d="M93 172C94.2484 172.685 94.5484 172.749 96 173C94.7517 172.315 94.4515 172.251 93 172M96 173C99.3488 174.405 102.564 174.015 106 173C102.829 172.238 99.3055 172.973 96 173M234 172L234 174C235.635 173.455 235.455 173.635 236 172L234 172M19 174C22.5345 175.837 25.3728 175.455 29 174C25.8286 173.238 22.3055 173.973 19 174M106 173L107 174L106 173M185.333 173.667C185.278 173.722 185.222 174.778 185.667 174.333C185.722 174.278 185.778 173.222 185.333 173.667M200 173L201 174L200 173M220 173L221 174L220 173M236 173C237.248 173.685 237.548 173.749 239 174C237.752 173.315 237.452 173.251 236 173z"/>
<path style="fill:#e4431a; stroke:none;" d="M108.667 174.333C108.222 174.778 109.278 174.722 109.333 174.667C109.778 174.222 108.722 174.278 108.667 174.333z"/>
<path style="fill:#c89e6c; stroke:none;" d="M201.333 174.667C201.278 174.722 201.222 175.778 201.667 175.333C201.722 175.278 201.778 174.222 201.333 174.667M212.333 174.667C212.278 174.722 212.222 175.778 212.667 175.333C212.722 175.278 212.778 174.222 212.333 174.667M219.333 174.667C219.278 174.722 219.222 175.778 219.667 175.333C219.722 175.278 219.778 174.222 219.333 174.667M230 174L231 175L230 174M239.333 174.667C239.278 174.722 239.222 175.778 239.667 175.333C239.722 175.278 239.778 174.222 239.333 174.667z"/>
<path style="fill:#e4431a; stroke:none;" d="M242 174C238.469 181.523 231.452 201.526 242.094 206.582C244.486 207.718 247.45 207.039 250 207C250.89 205.255 251.453 203.875 252 202C250.085 200.723 250.915 200.723 249 202C248.811 195.612 245.18 190.746 244.014 184.711C243.247 180.743 244.413 177.533 242 174z"/>
<path style="fill:#c89e6c; stroke:none;" d="M273 174L274 175L273 174M18 175L19 176L18 175M17 176L18 177L17 176M85 176L86 177L85 176M196 176L196 180C196.71 178.24 196.71 177.76 196 176M213.333 176.667C213.278 176.722 213.222 177.778 213.667 177.333C213.722 177.278 213.778 176.222 213.333 176.667M220 176L221 181C221.916 178.7 221.879 177.623 220 176M229 176L230 177L229 176M238.333 176.667C238.278 176.722 238.222 177.778 238.667 177.333C238.722 177.278 238.778 176.222 238.333 176.667M16 177L17 178L16 177z"/>
<path style="fill:#fefefd; stroke:none;" d="M85 177C81.1903 182.327 74.8121 186.615 73 193C77.0568 192.487 80.9085 191.735 85 192.465C95.6336 194.361 108.58 202.603 114 188C109.669 185.578 110.907 182.885 113 179C108.769 179.876 104.345 181.821 100 181.736C94.4816 181.628 89.9514 178.977 85 177z"/>
<path style="fill:#c89e6c; stroke:none;" d="M87 177L88 178L87 177M113 177L112 179L114 179C114 177.147 114.3 177.65 113 177M183.333 177.667C183.278 177.722 183.222 178.778 183.667 178.333C183.722 178.278 183.778 177.222 183.333 177.667M202 177C201.89 179.442 201.572 181.623 201 184C203.293 181.997 203.14 179.734 202 177M233 177L234 178L233 177M271 177L272 178L271 177M13 178C14.2484 178.685 14.5484 178.749 16 179C14.7517 178.315 14.4515 178.251 13 178M80.3333 178.667C80.2778 178.722 80.2222 179.778 80.6667 179.333C80.7222 179.278 80.7778 178.222 80.3333 178.667M84 178L85 179L84 178M88 178L89 179L88 178M229 178L230 179L229 178M236 178L236 180L238 180C237.455 178.365 237.635 178.545 236 178M11.6667 179.333C11.2222 179.778 12.2778 179.722 12.3333 179.667C12.7778 179.222 11.7222 179.278 11.6667 179.333M83 179L84 180L83 179M89.6667 179.333C89.2222 179.778 90.2778 179.722 90.3333 179.667C90.7778 179.222 89.7222 179.278 89.6667 179.333z"/>
<path style="fill:#e4431a; stroke:none;" d="M98 179C99.769 179.779 101.036 179.912 103 180C101.231 179.221 99.9641 179.088 98 179z"/>
<path style="fill:#c89e6c; stroke:none;" d="M110 179L111 180L110 179M184 179L185 180L184 179M198 179L199 180L198 179M271 179L272 180L271 179M10 180L10 183C10.6961 181.446 10.6961 181.554 10 180M92.6667 180.333C92.2222 180.778 93.2778 180.722 93.3333 180.667C93.7777 180.222 92.7222 180.278 92.6667 180.333M106 180L107 181L106 180M115 180L116 181L115 180M178 181L179 186C181.075 184.83 182.637 184.308 185 184C183.194 180.751 181.617 180.401 178 181M185 180L186 181L185 180M197 180L198 181L197 180M199 180L200 181L199 180M214.667 180.333C214.222 180.778 215.278 180.722 215.333 180.667C215.778 180.222 214.722 180.278 214.667 180.333M223 180L222 184C223.303 182.332 223.553 182.008 223 180M232.333 180.667C232.278 180.722 232.222 181.778 232.667 181.333C232.722 181.278 232.778 180.222 232.333 180.667M235 180L236 181L235 180M272 180L273 181L272 180M81 181L82 182L81 181M97 181C99.3316 181.985 101.457 181.981 104 182C101.668 181.015 99.5434 181.019 97 181M236 181L237 182L236 181M80 182L81 183L80 182M110 182L111 183L110 182M200 182L201 183L200 182M175 183L176 184L175 183M272.333 183.667C272.278 183.722 272.222 184.778 272.667 184.333C272.722 184.278 272.778 183.222 272.333 183.667M12 185C13.2228 186.195 13.42 186.316 15 187C13.7772 185.805 13.58 185.684 12 185M77.3333 185.667C77.2778 185.722 77.2222 186.778 77.6667 186.333C77.7222 186.278 77.7778 185.222 77.3333 185.667M110.333 185.667C110.278 185.722 110.222 186.778 110.667 186.333C110.722 186.278 110.778 185.222 110.333 185.667M171 185C171.482 187.364 171.636 187.518 174 188C172.999 186.076 172.923 185.902 171 185M177 185L178 186L177 185M234 185L234 187L236 187C235.455 185.365 235.635 185.545 234 185z"/>
<path style="fill:#e4431a; stroke:none;" d="M41 190C45.7399 190.365 46.9132 192.687 50.4637 195.406C52.3891 196.88 54.8644 197.17 56.8164 198.595C59.7074 200.706 61.8301 204.19 64 207C68.4053 205.337 74.8501 198.438 71.3565 193.443C66.214 186.09 47.0065 181.999 41 190z"/>
<path style="fill:#c89e6c; stroke:none;" d="M182 186C184.156 198.134 190.998 209.846 194 222C195.255 220.075 196.3 218.548 198 217C196.576 210.771 192.992 204.859 190.424 199C188.345 194.257 186.469 188.865 182 186M274.333 186.667C274.278 186.722 274.222 187.778 274.667 187.333C274.722 187.278 274.778 186.222 274.333 186.667M15 187L16 188L15 187M111 187L112 188L111 187M186 187L187 188L186 187M16 188L17 189L16 188M114.333 188.667C114.278 188.722 114.222 189.778 114.667 189.333C114.722 189.278 114.778 188.222 114.333 188.667M167 188L168 189L167 188M178 188C179.248 188.685 179.548 188.749 181 189C179.752 188.315 179.452 188.251 178 188M18 189L19 190L18 189M73 189L74 190L73 189M163.667 189.333C163.222 189.778 164.278 189.722 164.333 189.667C164.778 189.222 163.722 189.278 163.667 189.333M169 189C169.466 193.406 169.088 197.591 169 202C169.779 200.231 169.912 198.964 170 197C172.383 205.064 171.624 214.694 170.83 223C170.219 229.393 168.513 234.181 172 240C173.552 236.301 173 231.983 173 228L173 205C173 201.11 174.112 195.719 171 193L172 189L169 189M174 189L175 190L174 189M187 189L188 190L187 189M19.6667 190.333C19.2222 190.778 20.2778 190.722 20.3333 190.667C20.7778 190.222 19.7222 190.278 19.6667 190.333M72.3333 190.667C72.2778 190.722 72.2222 191.778 72.6667 191.333C72.7222 191.278 72.7778 190.222 72.3333 190.667M113 190L114 191L113 190M162 190L162 194C162.71 192.241 162.71 191.759 162 190M165 190L166 191L165 190M181 190L182 191L181 190M235 190L236 191L235 190M273.667 190.333C273.222 190.778 274.278 190.722 274.333 190.667C274.778 190.222 273.722 190.278 273.667 190.333M21 191L22 192L21 191M112 191L113 192L112 191z"/>
<path style="fill:#e4431a; stroke:none;" d="M113 193L116 205C119.728 200.38 122.29 189.725 113 193z"/>
<path style="fill:#fefefd; stroke:none;" d="M171.333 191.667C171.278 191.722 171.222 192.778 171.667 192.333C171.722 192.278 171.778 191.222 171.333 191.667z"/>
<path style="fill:#c89e6c; stroke:none;" d="M188 191L189 192L188 191M234.333 191.667C234.278 191.722 234.222 192.778 234.667 192.333C234.722 192.278 234.778 191.222 234.333 191.667M22 192L23 193L22 192M76 192C79.1633 193.327 82.5856 193 86 193C82.8367 191.673 79.4144 192 76 192M123.667 192.333C123.222 192.778 124.278 192.722 124.333 192.667C124.778 192.222 123.722 192.278 123.667 192.333M159 192L159 195L161 195L161 192L159 192M166 192L167 193L166 192M273.667 192.333C273.222 192.778 274.278 192.722 274.333 192.667C274.778 192.222 273.722 192.278 273.667 192.333M25 193L26 194L25 193M89 193L90 194L89 193M111 193L112 194L111 193M127 193C128.506 193.683 129.315 193.826 131 194C129.494 193.317 128.685 193.174 127 193M153 193L153 196C153.696 194.446 153.696 194.554 153 193M168 193L169 194L168 193M182 193L183 194L182 193M189 193L190 194L189 193M272 193C272.406 195.092 272.217 195.02 274 196C273.309 194.612 273.015 194.139 272 193M26 194C27.2228 195.195 27.42 195.316 29 196C27.7772 194.805 27.58 194.684 26 194z"/>
<path style="fill:#e4431a; stroke:none;" d="M52 209C49.3772 210.695 47.0923 210.211 44 210L44 213C40.3096 212.252 38.4399 210.849 36 208C32.4262 208.553 30.6031 208.585 28 206C25.6237 206.506 23.4272 207.031 21 207C23.8617 223.054 40.9719 237.877 56 242.38C61.8903 244.145 68.0701 243.588 74 245C78.3908 240.817 84.7776 240.127 90 237.246C100.648 231.373 111.656 217.82 105.995 205.044C104.204 201.004 99.6988 199.336 97 196C90.7235 197.224 82.0031 192.418 76.2994 195.349C73.3924 196.843 72.1346 201.469 70.2353 203.985C65.1453 210.726 59.6127 210.875 52 209z"/>
<path style="fill:#c89e6c; stroke:none;" d="M122 194L123 195L122 194M132.667 194.333C132.222 194.778 133.278 194.722 133.333 194.667C133.778 194.222 132.722 194.278 132.667 194.333M144 194C146.332 194.985 148.457 194.981 151 195C148.668 194.015 146.543 194.019 144 194M269 194L269 197C269.696 195.446 269.696 195.554 269 194M93 195C94.2484 195.685 94.5484 195.749 96 196C94.7517 195.315 94.4516 195.251 93 195M105 197L111 196C108.471 194.961 106.824 194.907 105 197z"/>
<path style="fill:#e4431a; stroke:none;" d="M136 195C138.052 195.874 139.747 195.953 142 196C139.948 195.126 138.253 195.047 136 195M143 195L144 196L143 195z"/>
<path style="fill:#c89e6c; stroke:none;" d="M156 195C154.633 199.625 155.283 204.242 154.83 209C154.345 214.098 152.306 220.797 153.353 225.83C154.044 229.155 156.468 231.499 157 235C159.092 232.24 158.972 229.395 159.424 226C160.597 217.202 162.55 201.904 156 195M183 195L184 196L183 195M30 196L31 197L30 196M97 196L98 197L97 196M137 204L139 204L142 196C136.211 196.193 134.527 198.609 137 204M161 196L162 197L161 196M190 196L191 197L190 196M32.6667 197.333C32.2222 197.778 33.2778 197.722 33.3333 197.667C33.7778 197.222 32.7222 197.278 32.6667 197.333M100 197C101.314 198.618 101.877 198.693 104 199C102.623 198.089 101.56 197.596 100 197z"/>
<path style="fill:#e4431a; stroke:none;" d="M105 200C108.064 204.915 108.984 209.257 109 215C115.597 210.883 113.973 203.325 112 197C109.296 197.617 107.37 198.544 105 200z"/>
<path style="fill:#c89e6c; stroke:none;" d="M151 197L152 198L151 197M160 197L160 200C160.696 198.446 160.696 198.554 160 197M184 197L185 198L184 197M273 197L274 198L273 197M34.6667 198.333C34.2222 198.778 35.2778 198.722 35.3333 198.667C35.7778 198.222 34.7222 198.278 34.6667 198.333M121 198L122 199L121 198M133 198L134 199L133 198M142.333 198.667C142.278 198.722 142.222 199.778 142.667 199.333C142.722 199.278 142.778 198.222 142.333 198.667M152 198L153 199L152 198M191 198L192 199L191 198M234 198L235 201C235.685 199.752 235.749 199.451 236 198L234 198z"/>
<path style="fill:#e4431a; stroke:none;" d="M37.6667 199.333C37.2222 199.778 38.2778 199.722 38.3333 199.667C38.7778 199.222 37.7222 199.278 37.6667 199.333z"/>
<path style="fill:#c89e6c; stroke:none;" d="M185 199L186 200L185 199M270.333 199.667C270.278 199.722 270.222 200.778 270.667 200.333C270.722 200.278 270.778 199.222 270.333 199.667M39.6667 200.333C39.2222 200.778 40.2778 200.722 40.3333 200.667C40.7778 200.222 39.7222 200.278 39.6667 200.333M51 200C52.2484 200.685 52.5484 200.749 54 201C52.7517 200.315 52.4516 200.251 51 200M174 200L174 210C175.346 206.793 175.346 203.207 174 200M192 200L193 201L192 200M18 201L17 205C17.6848 203.752 17.7488 203.452 18 202L21 205C21.0532 203.194 20.7987 202.738 20 201L18 201M57 201L58 202L57 201M120 201L121 202L120 201M186 201L187 202L186 201M269 201L270 202L269 201z"/>
<path style="fill:#64321c; stroke:none;" d="M18 202C18.952 220.351 38.1046 239.068 55 243.83C60.8391 245.476 66.9976 245 73 245C67.813 242.823 61.4872 243.926 56 242.049C40.4754 236.74 25.6161 223.024 21 207C23.6098 207.173 25.4799 206.756 28 206C30.0965 209.223 32.4513 208.807 36 208C38.03 211.479 40.0187 212.553 44 213L44 210L52 211C46.8239 207.341 41.2017 210.905 37 206C30.6269 207.105 23.8387 204.744 18 202z"/>
<path style="fill:#c89e6c; stroke:none;" d="M58 202L59 203L58 202M132.333 202.667C132.278 202.722 132.222 203.778 132.667 203.333C132.722 203.278 132.778 202.222 132.333 202.667M140 202L141 203L140 202M161 202L161 214C162.512 210.396 162.512 205.604 161 202M193 202L194 203L193 202M235 202L236 203L235 202M268 202L269 203L268 202M270.667 202.333C270.222 202.778 271.278 202.722 271.333 202.667C271.778 202.222 270.722 202.278 270.667 202.333M25.6667 203.333C25.2222 203.778 26.2778 203.722 26.3333 203.667C26.7778 203.222 25.7222 203.278 25.6667 203.333M119 203L120 204L119 203M134 203C128.64 213.17 117.86 222.997 115 234C121.452 229.316 126.576 218.778 130.86 212C132.728 209.045 134.924 206.519 134 203M261.333 203.667C261.278 203.722 261.222 204.778 261.667 204.333C261.722 204.278 261.778 203.222 261.333 203.667M267 203L268 204L267 203M24 204L25 205L24 204M28 204L29 205L28 204M59 204L60 205L59 204M131 204L132 205L131 204M153 204L153 208C153.71 206.241 153.71 205.759 153 204M187 204L188 205L187 204M194 204L195 205L194 204M236 204L237 205L236 204M253 204L254 205L253 204M34.6667 205.333C34.2222 205.778 35.2778 205.722 35.3333 205.667C35.7778 205.222 34.7222 205.278 34.6667 205.333M60 205L61 206L60 205M136.667 205.333C136.222 205.778 137.278 205.722 137.333 205.667C137.778 205.222 136.722 205.278 136.667 205.333M237 205L238 206L237 205M252 205L253 206L252 205M254 205L255 206L254 205M265 205L266 206L265 205M267 205C267.031 206.832 266.921 206.559 268 208C267.749 206.548 267.685 206.248 267 205z"/>
<path style="fill:#e4431a; stroke:none;" d="M29 206L30 207L29 206z"/>
<path style="fill:#c89e6c; stroke:none;" d="M33 206L34 207L33 206M37.3333 206.667C37.2778 206.722 37.2222 207.778 37.6667 207.333C37.7222 207.278 37.7778 206.222 37.3333 206.667M116.667 206.333C116.222 206.778 117.278 206.722 117.333 206.667C117.778 206.222 116.722 206.278 116.667 206.333M130 206L131 207L130 206M188.333 206.667C188.278 206.722 188.222 207.778 188.667 207.333C188.722 207.278 188.778 206.222 188.333 206.667M195 206L196 207L195 206M238 206L238 210C239.084 208.138 239.073 207.882 238 206M255 206L256 207L255 206M257 206L258 207L257 206M262 206L263 207L262 206z"/>
<path style="fill:#e4431a; stroke:none;" d="M30 207C31.2484 207.685 31.5484 207.749 33 208C31.7516 207.315 31.4516 207.251 30 207z"/>
<path style="fill:#c89e6c; stroke:none;" d="M45 207C46.2484 207.685 46.5484 207.749 48 208C46.7516 207.315 46.4516 207.251 45 207M54 207C55.7691 207.779 57.0359 207.912 59 208C57.231 207.221 55.9641 207.088 54 207M61.3333 207.667C61.2778 207.722 61.2222 208.778 61.6667 208.333C61.7222 208.278 61.7778 207.222 61.3333 207.667M135 207L136 208L135 207M258.667 207.333C258.222 207.778 259.278 207.722 259.333 207.667C259.778 207.222 258.722 207.278 258.667 207.333M38 208L39 209L38 208M44 208L45 209L44 208M48 208L49 209L48 208M53 208L54 209L53 208M59 208L60 209L59 208M196 208L197 209L196 208M241 208L242 209L241 208M260 208L261 209L260 208M19 209L20 210L19 209M39 209L40 210L39 209M42 209L43 210L42 209M49 209C50.2484 209.685 50.5484 209.749 52 210C50.7516 209.315 50.4516 209.251 49 209M128 209L129 210L128 209M134 209L135 210L134 209M189 209L190 210L189 209M243 209L244 210L243 209M245 209C246.248 209.685 246.548 209.749 248 210C246.752 209.315 246.452 209.251 245 209M249 209L250 210L249 209M114 210L115 211L114 210M127 210L128 211L127 210M133 210L134 211L133 210M197 210L198 211L197 210M248 210L249 211L248 210M20 211L21 212L20 211M244.333 211.667C244.278 211.722 244.222 212.778 244.667 212.333C244.722 212.278 244.778 211.222 244.333 211.667M261 211L262 212L261 211M113.333 212.667C113.278 212.722 113.222 213.778 113.667 213.333C113.722 213.278 113.778 212.222 113.333 212.667M126 212L127 213L126 212M132 212L133 213L132 212M190.333 212.667C190.278 212.722 190.222 213.778 190.667 213.333C190.722 213.278 190.778 212.222 190.333 212.667M21 213L22 214L21 213M131 213L132 214L131 213M112.333 214.667C112.278 214.722 112.222 215.778 112.667 215.333C112.722 215.278 112.778 214.222 112.333 214.667M125 214L126 215L125 214M199 214L199 220C199.951 217.715 199.951 216.285 199 214M22 215L23 216L22 215M124 215L125 216L124 215M130 215L131 216L130 215M111 216L112 217L111 216M161 216L161 224C162.161 221.23 162.161 218.77 161 216M191.333 216.667C191.278 216.722 191.222 217.778 191.667 217.333C191.722 217.278 191.778 216.222 191.333 216.667M23 217L24 218L23 217M110 217L111 218L110 217M129 217L130 218L129 217M152 217L152 220C152.696 218.446 152.696 218.554 152 217M109 218L110 219L109 218M122 218L123 219L122 218M128 218L129 219L128 218M169 218L169 223C169.83 220.969 169.83 220.03 169 218M24 219L25 220L24 219M108 219L109 220L108 219M197.333 219.667C197.278 219.722 197.222 220.778 197.667 220.333C197.722 220.278 197.778 219.222 197.333 219.667M121 220L122 221L121 220M127 220L128 221L127 220M25 221L26 222L25 221M107 221L108 222L107 221M120 221L121 222L120 221M126 221L127 222L126 221M192 221L193 222L192 221z"/>
<path style="fill:#fefefd; stroke:none;" d="M197 221L198 222L197 221z"/>
<path style="fill:#c89e6c; stroke:none;" d="M106 222L107 223L106 222M119 222L120 223L119 222M151 222L151 225C151.696 223.446 151.696 223.554 151 222M197 222C197.094 233.347 199 244.541 199 256L203 256C202.765 244.606 199.095 233.432 199 222L197 222M200 222L200 226C200.71 224.241 200.71 223.759 200 222M27 223L28 224L27 223M30.3333 223.667C30.2778 223.722 30.2222 224.778 30.6667 224.333C30.7222 224.278 30.7778 223.222 30.3333 223.667M124.333 223.667C124.278 223.722 124.222 224.778 124.667 224.333C124.722 224.278 124.778 223.222 124.333 223.667M118 224L119 225L118 224M193 224L194 225L193 224M28 225L29 226L28 225M102 225L103 226L102 225M105 225L106 226L105 225M123 225L124 226L123 225M29 226L30 227L29 226M104 226L105 227L104 226M116 226L117 227L116 226M122 226L123 227L122 226z"/>
<path style="fill:#e4431a; stroke:none;" d="M152 226C152.482 228.364 152.636 228.518 155 229C154.027 227.73 153.27 226.973 152 226z"/>
<path style="fill:#c89e6c; stroke:none;" d="M195 226L196 227L195 226M30 227L31 228L30 227M103 227L104 228L103 227M115.333 227.667C115.278 227.722 115.222 228.778 115.667 228.333C115.722 228.278 115.778 227.222 115.333 227.667M121 227L122 228L121 227M168 227L168 230C168.696 228.446 168.696 228.554 168 227M31 228L32 229L31 228M32 229L33 230L32 229M120 229L121 230L120 229M33 230L34 231L33 230M100 230L101 231L100 230M119 230L120 231L119 230M160.333 230.667C160.278 230.722 160.222 231.778 160.667 231.333C160.722 231.278 160.778 230.222 160.333 230.667M196.333 230.667C196.278 230.722 196.222 231.778 196.667 231.333C196.722 231.278 196.778 230.222 196.333 230.667M34 231L35 232L34 231M99.3333 231.667C99.2778 231.722 99.2222 232.778 99.6667 232.333C99.7222 232.278 99.7778 231.222 99.3333 231.667M113.333 231.667C113.278 231.722 113.222 232.778 113.667 232.333C113.722 232.278 113.778 231.222 113.333 231.667M151 231L151 235C151.71 233.241 151.71 232.759 151 231M35 232L36 233L35 232M118 232L119 233L118 232z"/>
<path style="fill:#e4431a; stroke:none;" d="M153 232L153 235C153.696 233.446 153.696 233.554 153 232z"/>
<path style="fill:#c89e6c; stroke:none;" d="M154 232C152.354 238.029 150.23 244.359 147.508 249.996C144.175 256.897 140.924 258.356 144 266C147.621 261.513 148.995 255.338 151.061 250C152.463 246.378 154.692 242.812 155.514 239.001C156.113 236.222 155.528 234.241 154 232M201.333 232.667C201.278 232.722 201.222 233.778 201.667 233.333C201.722 233.278 201.778 232.222 201.333 232.667M36 233L37 234L36 233M97 233L96 235L98 235C98 233.147 98.2997 233.65 97 233M37 234L38 235L37 234M117 234L118 235L117 234M167 234L168 235L167 234M38 235L39 236L38 235z"/>
<path style="fill:#e4431a; stroke:none;" d="M39 235L40 236L39 235z"/>
<path style="fill:#c89e6c; stroke:none;" d="M95 235L96 236L95 235M111 235L112 236L111 235M159 235L160 236L159 235M40 236L41 237L40 236M94 236L95 237L94 236M113 236C109.388 242.595 104.999 249.137 102 256C106.92 253.377 114.545 241.65 113 236M158 236L159 237L158 236M41 237L42 238L41 237M93 237L94 238L93 237M110 237L111 238L110 237M115 237L116 238L115 237M150 237L151 238L150 237M197 237L197 243C197.951 240.715 197.951 239.285 197 237M91 238L92 239L91 238M44 239L45 240L44 239M88 239L89 240L88 239M109 239L110 240L109 239M114 239L115 240L114 239M167 239L168 240L167 239M83 241C84.9433 241.622 85.949 241.436 88 241C85.9557 240.226 85.1554 240.408 83 241M108.333 240.667C108.278 240.722 108.222 241.778 108.667 241.333C108.722 241.278 108.778 240.222 108.333 240.667M149 240L149 243C149.696 241.446 149.696 241.554 149 240M156.333 240.667C156.278 240.722 156.222 241.778 156.667 241.333C156.722 241.278 156.778 240.222 156.333 240.667M170 240C168.092 245.625 167.098 251.531 164.652 257C161.992 262.946 157.573 267.157 159 274C164.069 267.859 166.769 258.528 169.164 251C170.342 247.297 171.505 243.69 170 240M202 240L202 243C202.696 241.446 202.696 241.554 202 240M46 241C47.5061 241.683 48.3148 241.826 50 242C48.494 241.317 47.6852 241.174 46 241M50 242L51 243L50 242M81.6667 242.333C81.2222 242.778 82.2778 242.722 82.3333 242.667C82.7778 242.222 81.7222 242.278 81.6667 242.333M113 242L114 243L113 242M173 242L174 243L173 242M53 243L54 244L53 243M78.6667 243.333C78.2222 243.778 79.2778 243.722 79.3333 243.667C79.7778 243.222 78.7222 243.278 78.6667 243.333M107 243L108 244L107 243M148 243L148 246C148.696 244.446 148.696 244.554 148 243M155 243L156 244L155 243M167 243L168 244L167 243M56.6667 244.333C56.2222 244.778 57.2778 244.722 57.3333 244.667C57.7778 244.222 56.7222 244.278 56.6667 244.333M74 244C75.2484 244.685 75.5484 244.749 77 245C75.7516 244.315 75.4516 244.251 74 244M172 244L173 245L172 244M58 245C62.7238 246.982 68.9098 246 74 246C69.2762 244.018 63.0901 245 58 245M106 245L107 246L106 245M111 245L112 246L111 245M154.333 245.667C154.278 245.722 154.222 246.778 154.667 246.333C154.722 246.278 154.778 245.222 154.333 245.667M147.333 246.667C147.278 246.722 147.222 247.778 147.667 247.333C147.722 247.278 147.778 246.222 147.333 246.667M166.333 246.667C166.278 246.722 166.222 247.778 166.667 247.333C166.722 247.278 166.778 246.222 166.333 246.667M203.333 246.667C203.278 246.722 203.222 247.778 203.667 247.333C203.722 247.278 203.778 246.222 203.333 246.667M110 247L111 248L110 247M153 247L154 248L153 247M104 248L105 249L104 248M197 248L197 254C197.951 251.715 197.951 250.285 197 248M109 249L110 250L109 249M146 249L147 250L146 249M103 250L104 251L103 250M152 250L153 251L152 250M165.333 250.667C165.278 250.722 165.222 251.778 165.667 251.333C165.722 251.278 165.778 250.222 165.333 250.667M102 251L103 252L102 251M170 251L171 252L170 251M101 252L102 253L101 252M107 252L108 253L107 252M144 252L145 253L144 252M151.333 252.667C151.278 252.722 151.222 253.778 151.667 253.333C151.722 253.278 151.778 252.222 151.333 252.667M204 252L204 256C204.71 254.241 204.71 253.759 204 252M100 253L101 254L100 253M143 253L142 255L144 255C144 253.147 144.3 253.65 143 253M164.333 253.667C164.278 253.722 164.222 254.778 164.667 254.333C164.722 254.278 164.778 253.222 164.333 253.667M106 255L107 256L106 255M141 255L142 256L141 255M150 255L151 256L150 255M169 255L170 256L169 255M105.333 256.667C105.278 256.722 105.222 257.778 105.667 257.333C105.722 257.278 105.778 256.222 105.333 256.667M163 256L164 257L163 256M140 257L141 258L140 257M104.333 258.667C104.278 258.722 104.222 259.778 104.667 259.333C104.722 259.278 104.778 258.222 104.333 258.667M139 258L140 259L139 258M149 258L150 259L149 258M162 258L163 259L162 258M168 258L169 259L168 258M198 258L199 259L198 258M203 258L204 259L203 258M101 259L101 267C102.561 264.397 102.862 262.022 103 259L101 259M148 260L149 261L148 260M161 260L162 261L161 260M97 261L98 262L97 261M138 261L138 264C138.696 262.446 138.696 262.554 138 261M104.333 262.667C104.278 262.722 104.222 263.778 104.667 263.333C104.722 263.278 104.778 262.222 104.333 262.667M147.333 262.667C147.278 262.722 147.222 263.778 147.667 263.333C147.722 263.278 147.778 262.222 147.333 262.667M160 262L161 263L160 262M166 262L167 263L166 262M200 262L200 268C200.951 265.715 200.951 264.285 200 262M202 263L202 266C202.696 264.446 202.696 264.554 202 263M98 264C96.4661 265.023 96.5977 264.805 96 266C97.006 267.731 97.5465 269.053 98 271C98.9576 268.521 98.8422 266.526 98 264M140 264C137.376 270.301 131.515 276.213 131 283C136.031 279.678 140.507 269.784 142 264L140 264M198.333 264.667C198.278 264.722 198.222 265.778 198.667 265.333C198.722 265.278 198.778 264.222 198.333 264.667z"/>
<path style="fill:#fefefd; stroke:none;" d="M98.3333 265.667C98.2777 265.722 98.2222 266.778 98.6667 266.333C98.7222 266.278 98.7778 265.222 98.3333 265.667z"/>
<path style="fill:#c89e6c; stroke:none;" d="M103.333 265.667C103.278 265.722 103.222 266.778 103.667 266.333C103.722 266.278 103.778 265.222 103.333 265.667M146 265L147 266L146 265M158 265L159 266L158 265M137 266L138 267L137 266M157 266L158 267L157 266M164.333 266.667C164.278 266.722 164.222 267.778 164.667 267.333C164.722 267.278 164.778 266.222 164.333 266.667M102 268L103 269L102 268M136 268L137 269L136 268M145 268L146 269L145 268M156 268L157 269L156 268M163 269L164 270L163 269M197 269L198 270L197 269M203 269L203 272C203.696 270.446 203.696 270.554 203 269M101 270L102 271L101 270M134 270L134 273C135.015 271.861 135.309 271.388 136 270L134 270M144 270L145 271L144 270M155 270L155 275C155.83 272.97 155.83 272.03 155 270M142.667 271.333C142.222 271.778 143.278 271.722 143.333 271.667C143.778 271.222 142.722 271.278 142.667 271.333M162 271L163 272L162 271M201 271L202 272L201 271M139 272L140 273L139 272M199 272L200 273L199 272M98.6667 273.333C98.2222 273.778 99.2778 273.722 99.3333 273.667C99.7778 273.222 98.7222 273.278 98.6667 273.333M198 273L199 274L198 273M128 276C130.092 275.594 130.02 275.783 131 274C129.42 274.684 129.223 274.805 128 276M133 274L134 275L133 274M138 274L139 275L138 274M161 274L162 275L161 274M197.333 274.667C197.278 274.722 197.222 275.778 197.667 275.333C197.722 275.278 197.778 274.222 197.333 274.667M137 276L138 277L137 276M153 276L154 277L153 276M160 276L161 277L160 276M129 277L129 280C129.696 278.446 129.696 278.554 129 277M136 277L137 278L136 277M155 277L154 281C155.146 279.36 155.393 278.924 155 277M159 277L160 278L159 277M152 278L153 279L152 278M157.667 278.333C157.222 278.778 158.278 278.722 158.333 278.667C158.778 278.222 157.722 278.278 157.667 278.333M151 279L152 280L151 279M150 280L151 281L150 280M156 280L157 281L156 280M128 281L129 282L128 281M149 281L150 282L149 281M127 282L128 283L127 282M134 282L135 283L134 282M148 282C147.014 283.479 147 283.203 147 285C148.289 283.557 148.401 283.766 148 282M129.667 283.333C129.222 283.778 130.278 283.722 130.333 283.667C130.778 283.222 129.722 283.278 129.667 283.333M151 283L152 284L151 283M155 283L156 284L155 283M127 284L128 285L127 284M150 284L151 285L150 284M131 285C131 286.797 131.014 286.521 132 288C133.195 286.777 133.316 286.58 134 285L131 285M152.333 285.667C152.278 285.722 152.222 286.778 152.667 286.333C152.722 286.278 152.778 285.222 152.333 285.667M154 285L155 286L154 285z"/>
</svg>
